<svg width="48" height="48" viewBox="0 0 48 48" fill="none" xmlns="http://www.w3.org/2000/svg">
<path fill-rule="evenodd" clip-rule="evenodd" d="M23.4951 36.8506C20.8368 36.8506 18.8224 36.252 17.5072 35.0714C16.165 33.8659 15.4844 32.2449 15.4844 30.2525C15.4844 30.2525 15.4844 29.0142 15.4844 28.9722C15.4797 28.5734 15.5893 28.1469 15.7935 27.7731C16.0471 27.3102 16.6834 26.5348 18.1007 26.5348C19.5203 26.5348 20.1538 27.3129 20.4051 27.7768C20.676 28.2785 20.7105 28.7423 20.7068 28.9745L20.7072 30.3817C20.7072 31.1419 20.8998 31.6911 21.2965 32.0613C21.7044 32.4425 22.414 32.6354 23.4056 32.6354C24.3967 32.6354 25.1063 32.4425 25.5142 32.0617C25.911 31.6911 26.104 31.1414 26.104 30.3817C26.104 29.7739 25.9231 29.2666 25.551 28.8323C25.0858 28.2882 24.4951 27.7726 23.7949 27.2991C23.0471 26.7928 22.2261 26.2869 21.3548 25.7963C20.4228 25.272 19.5389 24.6873 18.7268 24.06C17.8727 23.3991 17.1478 22.638 16.5711 21.7966C15.9394 20.8773 15.6186 19.7797 15.6186 18.5349C15.6186 16.5189 16.3007 14.8911 17.6452 13.6971C18.9604 12.5294 20.9436 11.9373 23.5399 11.9373C26.1683 11.9373 28.1678 12.5359 29.4825 13.7169C30.7916 14.8916 31.4718 16.464 31.5049 18.3905C31.5049 18.3905 31.5058 18.534 31.5044 18.6582C31.4797 18.9642 31.3902 19.3916 31.0942 19.8522C30.607 20.6105 29.8219 21.0116 28.8228 21.0116C27.8172 21.0116 27.0191 20.5851 26.5758 19.8106C26.2914 19.3159 26.2424 18.8603 26.2382 18.6328V18.4062C26.2382 17.6373 26.0541 17.082 25.6746 16.7091C25.3044 16.3445 24.5977 16.152 23.6294 16.152C22.6615 16.152 21.9543 16.3445 21.5841 16.7086C21.2047 17.0816 21.0205 17.6262 21.0205 18.3743C21.0205 18.9849 21.2028 19.4991 21.579 19.9468C22.041 20.4969 22.6298 21.0157 23.3291 21.4888C24.0755 21.9946 24.9021 22.4991 25.7869 22.9883C26.7403 23.5173 27.6336 24.1029 28.4424 24.7288C29.2946 25.3879 30.02 26.1489 30.5972 26.9903C31.2294 27.9116 31.5506 29.0091 31.5506 30.2525C31.5506 32.2473 30.8606 33.8705 29.5007 35.0756C28.1716 36.2534 26.151 36.8506 23.4951 36.8506M23.9399 48C20.7091 48 17.5739 47.3751 14.6214 46.1423C11.7706 44.9516 9.21072 43.2471 7.01305 41.0769C4.81492 38.9068 3.08904 36.3794 1.88298 33.5636C0.633566 30.6466 0 27.5502 0 24.3605C0 21.1713 0.633566 18.0748 1.88298 15.1579C3.08904 12.3416 4.81538 9.81372 7.01305 7.64495C9.21026 5.47433 11.7706 3.77033 14.6214 2.57956C17.3189 1.45341 19.7786 0.833563 22.6452 0.734793C22.9175 0.725563 22.6643 0.720947 22.9445 0.720947C24.2382 0.720947 25.2904 1.76033 25.2904 3.03787C25.2904 4.31541 24.2382 5.35526 22.9445 5.35526C22.6839 5.35526 22.786 5.38802 22.5986 5.40049C12.6075 6.08264 4.69044 14.3262 4.69044 24.3605C4.69044 34.8411 13.3259 43.3666 23.9399 43.3666C34.5543 43.3666 43.1897 34.8411 43.1897 24.3605C43.1897 18.1473 41.6037 13.8974 37.0937 10.5333L37.1012 18.6997C37.1021 19.9768 36.0508 21.0171 34.7571 21.0189C33.4643 21.0189 32.4121 19.98 32.4112 18.7029L32.4019 6.25202C32.4019 6.22295 32.4014 6.21556 32.4159 6.00187C32.4224 5.94372 32.427 5.91095 32.4573 5.75033C32.5473 5.3691 32.7082 5.05433 32.9674 4.74279C33.0923 4.59879 33.2131 4.49218 33.4177 4.34172C33.7408 4.12756 34.0872 3.99741 34.4359 3.95402C34.4629 3.94987 34.5007 3.94479 34.7175 3.93418C34.724 3.93418 34.7613 3.93325 34.7674 3.93325C34.8228 3.93325 34.8839 3.93787 35.0159 3.95033C35.0918 3.95818 35.1044 3.95818 35.3245 4.00525C35.3883 4.02095 35.4205 4.03018 35.6019 4.09341C35.6667 4.11879 35.6965 4.13172 35.8382 4.20002C39.6527 6.17956 42.0639 8.34464 44.3198 11.9534C46.649 15.6757 47.8793 19.9662 47.8793 24.3605C47.8793 27.5516 47.2462 30.648 45.9967 33.5636C44.7907 36.3789 43.0653 38.9068 40.8671 41.0774C38.6699 43.2462 36.11 44.9506 33.2587 46.1423C30.3058 47.3751 27.1702 48 23.9399 48" fill="#4E6977"/>
<path fill-rule="evenodd" clip-rule="evenodd" d="M29.2144 5.95646C27.6573 5.95646 26.3906 4.70477 26.3906 3.16646C26.3906 1.62816 27.6573 0.376465 29.2144 0.376465C30.7715 0.376465 32.0386 1.62816 32.0386 3.16646C32.0386 4.70477 30.7715 5.95646 29.2144 5.95646" fill="#4E6977"/>
<path fill-rule="evenodd" clip-rule="evenodd" d="M34.7852 27.71C33.2281 27.71 31.9614 26.4587 31.9614 24.9204C31.9614 23.383 33.2281 22.1313 34.7852 22.1313C36.3423 22.1313 37.6094 23.383 37.6094 24.9204C37.6094 26.4587 36.3423 27.71 34.7852 27.71" fill="#4E6977"/>
</svg>
